<mxfile host="app.diagrams.net" modified="2024-05-02T16:14:07.684Z" agent="Mozilla/5.0 (X11; Linux x86_64) AppleWebKit/537.36 (KHTML, like Gecko) Chrome/123.0.0.0 Safari/537.36" etag="0O0xpwePIq1hqpUVADyE" version="24.3.1" type="google">
  <diagram name="Page-1" id="38NrWXjYOh1t8qGZMtI1">
    <mxGraphModel grid="1" page="1" gridSize="10" guides="1" tooltips="1" connect="1" arrows="1" fold="1" pageScale="1" pageWidth="850" pageHeight="1100" math="0" shadow="0">
      <root>
        <mxCell id="0" />
        <mxCell id="1" parent="0" />
        <mxCell id="eBeT612BF1rM6WfNTTId-4" value="" style="edgeStyle=orthogonalEdgeStyle;rounded=0;orthogonalLoop=1;jettySize=auto;html=1;" edge="1" parent="1">
          <mxGeometry relative="1" as="geometry">
            <mxPoint x="330" y="460" as="sourcePoint" />
            <mxPoint x="470" y="460" as="targetPoint" />
          </mxGeometry>
        </mxCell>
        <mxCell id="eBeT612BF1rM6WfNTTId-5" value="&lt;font style=&quot;font-size: 12px;&quot;&gt;Input Music&lt;/font&gt;" style="edgeLabel;html=1;align=center;verticalAlign=middle;resizable=0;points=[];fontSize=17;fontStyle=1" vertex="1" connectable="0" parent="eBeT612BF1rM6WfNTTId-4">
          <mxGeometry x="-0.3864" y="3" relative="1" as="geometry">
            <mxPoint x="23" y="-17" as="offset" />
          </mxGeometry>
        </mxCell>
        <mxCell id="eBeT612BF1rM6WfNTTId-1" value="&lt;span style=&quot;font-size: 18px;&quot;&gt;&lt;b&gt;User&lt;/b&gt;&lt;/span&gt;" style="rounded=0;whiteSpace=wrap;html=1;" vertex="1" parent="1">
          <mxGeometry x="210" y="430" width="120" height="140" as="geometry" />
        </mxCell>
        <mxCell id="eBeT612BF1rM6WfNTTId-2" value="&lt;b&gt;&lt;font style=&quot;font-size: 17px;&quot;&gt;Music Popularity Prediction&amp;nbsp;&lt;/font&gt;&lt;/b&gt;" style="ellipse;whiteSpace=wrap;html=1;" vertex="1" parent="1">
          <mxGeometry x="456" y="435" width="142" height="142" as="geometry" />
        </mxCell>
        <mxCell id="Clr7wKazgpy2h4SdV45y-3" value="" style="endArrow=classic;html=1;rounded=0;entryX=1.025;entryY=0.887;entryDx=0;entryDy=0;entryPerimeter=0;" edge="1" parent="1">
          <mxGeometry width="50" height="50" relative="1" as="geometry">
            <mxPoint x="470" y="553" as="sourcePoint" />
            <mxPoint x="330" y="553.05" as="targetPoint" />
          </mxGeometry>
        </mxCell>
        <mxCell id="Clr7wKazgpy2h4SdV45y-4" value="&lt;b&gt;Prediction&amp;nbsp;&lt;span style=&quot;background-color: rgb(255, 255, 255);&quot;&gt;&lt;font style=&quot;font-size: 12px;&quot;&gt;Result&lt;/font&gt;&lt;/span&gt;&lt;/b&gt;" style="text;html=1;align=center;verticalAlign=middle;resizable=0;points=[];autosize=1;strokeColor=none;fillColor=none;" vertex="1" parent="1">
          <mxGeometry x="336" y="520" width="120" height="30" as="geometry" />
        </mxCell>
      </root>
    </mxGraphModel>
  </diagram>
</mxfile>
